<svg viewBox="0 0 15.9673 15.9673" xmlns="http://www.w3.org/2000/svg" xmlns:xlink="http://www.w3.org/1999/xlink" width="15.967285" height="15.967346" fill="none" customFrame="#000000">
	<g id="Layer 2">
		<g id="Layer 1">
			<path id="Vector" />
			<path id="Vector" d="M7.95101 1.45164C9.24294 1.45164 10.5059 1.83474 11.58 2.5525C12.6542 3.27025 13.4915 4.29043 13.9859 5.48401C14.4803 6.6776 14.6096 7.99098 14.3576 9.25808C14.1056 10.5252 13.4834 11.6891 12.5699 12.6026C11.6564 13.5162 10.4925 14.1383 9.22536 14.3903C7.95826 14.6424 6.64487 14.513 5.45129 14.0186C4.2577 13.5242 3.23753 12.687 2.51978 11.6128C1.80202 10.5386 1.41892 9.27566 1.41892 7.98374C1.42561 6.25338 2.11596 4.5958 3.33952 3.37224C4.56307 2.14868 6.22065 1.45833 7.95101 1.45164L7.95101 1.45164ZM7.95101 6.68116e-05C6.3734 0.00652074 4.83306 0.480235 3.52446 1.36141C2.21585 2.24258 1.19765 3.4917 0.598391 4.95108C-0.000868797 6.41046 -0.15432 8.01468 0.15741 9.5612C0.46914 11.1077 1.23208 12.5272 2.3499 13.6405C3.46773 14.7538 4.89033 15.5109 6.43811 15.8163C7.98589 16.1217 9.58946 15.9617 11.0464 15.3565C12.5033 14.7513 13.7483 13.728 14.6241 12.4158C15.4999 11.1036 15.9673 9.56136 15.9673 7.98374C15.9674 6.93255 15.7598 5.89171 15.3565 4.92096C14.9533 3.9502 14.3623 3.06863 13.6174 2.32685C12.8726 1.58507 11.9887 0.997679 11.0163 0.598388C10.0439 0.199097 9.00219 -0.00423349 7.95101 6.68116e-05L7.95101 6.68116e-05Z" fill="rgb(242.25,242.25,242.25)" fill-rule="nonzero" />
			<path id="Vector" d="M11.6743 7.38132L8.46268 7.38132L8.46268 4.16971L7.38126 4.16971L7.38126 7.38132L4.16602 7.38132L4.16602 8.46274L7.38126 8.46274L7.38126 11.6744L8.46268 11.6744L8.46268 8.46274L11.6743 8.46274L11.6743 7.38132Z" fill="rgb(242.25,242.25,242.25)" fill-rule="nonzero" />
		</g>
	</g>
</svg>
